<?xml version="1.0" encoding="UTF-8"?>
<!DOCTYPE svg PUBLIC "-//W3C//DTD SVG 1.1//EN" "http://www.w3.org/Graphics/SVG/1.1/DTD/svg11.dtd">
<svg xmlns="http://www.w3.org/2000/svg" version="1.1" width="100px" height="99px" style="shape-rendering:geometricPrecision; text-rendering:geometricPrecision; image-rendering:optimizeQuality; fill-rule:evenodd; clip-rule:evenodd" xmlns:xlink="http://www.w3.org/1999/xlink">
<g><path style="opacity:1" fill="#0497b2" d="M 2.5,-0.5 C 33.8333,-0.5 65.1667,-0.5 96.5,-0.5C 97.5,0.5 98.5,1.5 99.5,2.5C 99.5,33.8333 99.5,65.1667 99.5,96.5C 98.5,96.8333 97.8333,97.5 97.5,98.5C 65.5,98.5 33.5,98.5 1.5,98.5C 1.16667,97.5 0.5,96.8333 -0.5,96.5C -0.5,65.1667 -0.5,33.8333 -0.5,2.5C 0.5,1.5 1.5,0.5 2.5,-0.5 Z"/></g>
<g><path style="opacity:1" fill="#f6f7f8" d="M 31.5,25.5 C 40.5062,25.3336 49.5062,25.5002 58.5,26C 72.2533,31.6794 75.7533,41.1794 69,54.5C 64.9974,59.418 59.8308,62.0846 53.5,62.5C 53.5,67.5 53.5,72.5 53.5,77.5C 46.1667,77.5 38.8333,77.5 31.5,77.5C 31.5,60.1667 31.5,42.8333 31.5,25.5 Z"/></g>
<g><path style="opacity:1" fill="#3dadc2" d="M 58.5,33.5 C 52.1667,33.5 45.8333,33.5 39.5,33.5C 39.5,45.5 39.5,57.5 39.5,69.5C 41.5,69.5 43.5,69.5 45.5,69.5C 45.1805,64.6367 45.5139,59.97 46.5,55.5C 46.5,60.5 46.5,65.5 46.5,70.5C 43.8333,70.5 41.1667,70.5 38.5,70.5C 38.5,57.8333 38.5,45.1667 38.5,32.5C 45.3543,32.176 52.021,32.5093 58.5,33.5 Z"/></g>
<g><path style="opacity:1" fill="#0e98b2" d="M 58.5,33.5 C 65.9074,37.4208 67.4074,43.0874 63,50.5C 58.4323,54.9863 52.9323,56.653 46.5,55.5C 45.5139,59.97 45.1805,64.6367 45.5,69.5C 43.5,69.5 41.5,69.5 39.5,69.5C 39.5,57.5 39.5,45.5 39.5,33.5C 45.8333,33.5 52.1667,33.5 58.5,33.5 Z"/></g>
</svg>
