<svg width="100" height="100" viewBox="0 0 100 100" fill="none" xmlns="http://www.w3.org/2000/svg">
<path d="M0 2.94118C0 1.31681 1.31681 0 2.94118 0H97.0588C98.6832 0 100 1.31681 100 2.94118V97.0588C100 98.6832 98.6832 100 97.0588 100H2.94118C1.31681 100 0 98.6832 0 97.0588V2.94118Z" fill="#1697B1"/>
<path fill-rule="evenodd" clip-rule="evenodd" d="M53.6364 25.8823C56.2983 25.8823 58.8303 26.4375 61.123 27.4381C67.7334 30.3233 72.353 36.9126 72.353 44.5798C72.353 52.2469 67.7334 58.8363 61.123 61.7217C58.8303 62.7223 56.2983 63.2773 53.6364 63.2773V78.2353H31.1765V25.8823H53.6364ZM38.6631 33.3613V70.7563H46.1498V55.7983H53.6364L53.6484 55.7938C59.7856 55.9116 65.1456 50.9123 65.0322 44.4104L65.0067 42.9542C64.9117 37.4816 60.3302 33.1575 54.8556 33.3725L53.7124 33.3898L53.6364 33.3613H38.6631Z" fill="white"/>
</svg>
