<?xml version="1.0" encoding="UTF-8"?>
<!DOCTYPE svg PUBLIC "-//W3C//DTD SVG 1.1//EN" "http://www.w3.org/Graphics/SVG/1.1/DTD/svg11.dtd">
<svg xmlns="http://www.w3.org/2000/svg" version="1.1" width="40px" height="40px" style="shape-rendering:geometricPrecision; text-rendering:geometricPrecision; image-rendering:optimizeQuality; fill-rule:evenodd; clip-rule:evenodd" xmlns:xlink="http://www.w3.org/1999/xlink">
<g><path style="opacity:1" fill="#0898b2" d="M -0.5,-0.5 C 12.8333,-0.5 26.1667,-0.5 39.5,-0.5C 39.5,12.8333 39.5,26.1667 39.5,39.5C 26.1667,39.5 12.8333,39.5 -0.5,39.5C -0.5,26.1667 -0.5,12.8333 -0.5,-0.5 Z"/></g>
<g><path style="opacity:1" fill="#e7f1f3" d="M 12.5,9.5 C 16.1817,9.3347 19.8484,9.50137 23.5,10C 29.729,14.1708 30.0623,18.8374 24.5,24C 23.552,24.4828 22.552,24.6495 21.5,24.5C 21.5,26.5 21.5,28.5 21.5,30.5C 18.5,30.5 15.5,30.5 12.5,30.5C 12.5,23.5 12.5,16.5 12.5,9.5 Z"/></g>
<g><path style="opacity:1" fill="#139ab4" d="M 15.5,12.5 C 19.0071,11.9935 22.1737,12.6602 25,14.5C 26.1667,19.8353 24.0001,22.1686 18.5,21.5C 18.5,23.5 18.5,25.5 18.5,27.5C 17.5,27.5 16.5,27.5 15.5,27.5C 15.5,22.5 15.5,17.5 15.5,12.5 Z"/></g>
</svg>
